<?xml version="1.0" encoding="UTF-8"?>
<svg version="1.1" xmlns="http://www.w3.org/2000/svg" width="526" height="527">
<path d="M0 0 C0.90054108 -0.00701431 1.80108215 -0.01402863 2.72891235 -0.02125549 C5.61750351 -0.03865402 8.50588962 -0.0451074 11.39453125 -0.046875 C12.38190277 -0.04754974 13.36927429 -0.04822449 14.38656616 -0.04891968 C28.87088644 -0.03317921 42.95714651 0.39155005 57.20703125 3.203125 C58.12532715 3.37473145 59.04362305 3.54633789 59.98974609 3.72314453 C113.28404467 13.81560013 159.05455816 39.01985914 198.20703125 76.203125 C199.03460938 76.98816406 199.8621875 77.77320312 200.71484375 78.58203125 C206.36606725 84.08557469 211.31094004 90.02664151 216.20703125 96.203125 C217.08109248 97.27550543 217.95612415 98.34709548 218.83203125 99.41796875 C246.49113958 133.52278301 264.57257155 175.05973419 272.20703125 218.203125 C272.3678418 219.02474121 272.52865234 219.84635742 272.69433594 220.69287109 C278.08313695 248.6757481 277.67307162 281.27593078 272.20703125 309.203125 C271.9735498 310.52256104 271.9735498 310.52256104 271.73535156 311.86865234 C262.33034454 364.77885653 235.95945881 411.5043072 199.20703125 450.203125 C198.02947266 451.44449219 198.02947266 451.44449219 196.828125 452.7109375 C191.32497051 458.36176161 185.38552309 463.31014511 179.20703125 468.203125 C178.11145656 469.08919797 177.0164226 469.97593985 175.921875 470.86328125 C133.78249972 504.79938068 78.90597755 527.12035362 24.4140625 527.40625 C23.51352142 527.41326431 22.61298035 527.42027863 21.68515015 527.42750549 C18.79655899 527.44490402 15.90817288 527.4513574 13.01953125 527.453125 C12.03215973 527.45379974 11.04478821 527.45447449 10.02749634 527.45516968 C-4.45682394 527.43942921 -18.54308401 527.01469995 -32.79296875 524.203125 C-34.1704126 523.94571533 -34.1704126 523.94571533 -35.57568359 523.68310547 C-88.86998217 513.59064987 -134.64049566 488.38639086 -173.79296875 451.203125 C-175.03433594 450.02556641 -175.03433594 450.02556641 -176.30078125 448.82421875 C-181.95200475 443.32067531 -186.89687754 437.37960849 -191.79296875 431.203125 C-192.66702998 430.13074457 -193.54206165 429.05915452 -194.41796875 427.98828125 C-222.07707708 393.88346699 -240.15850905 352.34651581 -247.79296875 309.203125 C-247.9537793 308.38150879 -248.11458984 307.55989258 -248.28027344 306.71337891 C-253.66907445 278.7305019 -253.25900912 246.13031922 -247.79296875 218.203125 C-247.63731445 217.32350098 -247.48166016 216.44387695 -247.32128906 215.53759766 C-237.91628204 162.62739347 -211.54539631 115.9019428 -174.79296875 77.203125 C-174.00792969 76.37554687 -173.22289062 75.54796875 -172.4140625 74.6953125 C-166.91090801 69.04448839 -160.97146059 64.09610489 -154.79296875 59.203125 C-153.69739406 58.31705203 -152.6023601 57.43031015 -151.5078125 56.54296875 C-109.36843722 22.60686932 -54.49191505 0.28589638 0 0 Z M-31.79296875 25.203125 C-32.79489258 25.40711914 -33.79681641 25.61111328 -34.82910156 25.82128906 C-82.57744259 35.86203295 -123.57455159 58.71853761 -158.79296875 92.203125 C-159.44523437 92.81414062 -160.0975 93.42515625 -160.76953125 94.0546875 C-165.93114623 99.02775034 -170.32795325 104.60935358 -174.79296875 110.203125 C-175.65796864 111.25463534 -176.5238759 112.3053998 -177.390625 113.35546875 C-202.33492557 143.90431453 -229.2805278 192.57299378 -226.79296875 233.203125 C-218.29326644 226.87001347 -209.87833563 220.42499597 -201.55078125 213.8671875 C-155.15682961 177.39229321 -97.56193933 135.37341796 -35.37011719 142.47998047 C-20.31368845 144.96587795 -6.3485268 153.6461225 5.20703125 163.203125 C5.77695801 163.67298828 6.34688477 164.14285156 6.93408203 164.62695312 C17.17239909 173.10957714 26.55373176 182.09672428 35.20703125 192.203125 C36.20872224 193.35366026 37.21141893 194.50332032 38.21484375 195.65234375 C44.68115755 203.06473824 51.01090851 210.5625685 57.20703125 218.203125 C86.02293006 254.68824312 86.02293006 254.68824312 122.20703125 283.203125 C123.86412109 284.18732422 123.86412109 284.18732422 125.5546875 285.19140625 C160.89542437 305.07306093 207.44519739 317.203125 248.20703125 317.203125 C248.85755495 313.55811276 249.50158031 309.91198 250.14453125 306.265625 C250.32693359 305.24404297 250.50933594 304.22246094 250.69726562 303.16992188 C261.60943974 241.06973101 246.23216639 176.0076295 210.26953125 124.453125 C204.97625261 117.0195427 199.28723399 110.00372069 193.20703125 103.203125 C192.73346191 102.67315918 192.25989258 102.14319336 191.77197266 101.59716797 C188.62517986 98.09261669 185.43192528 94.63591315 182.20703125 91.203125 C181.28664063 90.21892578 181.28664063 90.21892578 180.34765625 89.21484375 C175.3732035 84.06273198 169.80903056 79.64962053 164.20703125 75.203125 C163.24023438 74.419375 162.2734375 73.635625 161.27734375 72.828125 C131.80876261 49.43322089 96.8384788 33.51041555 60.01953125 25.953125 C58.91798706 25.72629028 58.91798706 25.72629028 57.79418945 25.49487305 C42.75331078 22.61110168 27.86190868 21.82621181 12.58203125 21.890625 C11.19723068 21.89385773 11.19723068 21.89385773 9.78445435 21.89715576 C-4.25766725 21.94967351 -17.99307122 22.37870234 -31.79296875 25.203125 Z " fill="#053534" transform="translate(250.79296875,-0.203125)"/>
<path d="M0 0 C0.66 0 1.32 0 2 0 C3.43549726 1.59334239 4.79827327 3.25251082 6.125 4.9375 C9.0053458 8.54023285 11.90709062 12.07792557 15 15.5 C18.66429001 19.57625161 22.1288117 23.79127225 25.58203125 28.046875 C28.64794852 31.79135554 31.77887191 35.47786745 34.91552734 39.16308594 C37.80813577 42.56888283 40.63785282 46.01689465 43.4375 49.5 C48.2123207 55.35382822 53.27217937 60.90710132 58.46923828 66.38574219 C59.46640485 67.43729966 60.4597761 68.49247336 61.44873047 69.55175781 C100.15921668 110.88015195 159.80837242 125.01739895 214.06713867 131.04931641 C215.06205322 131.16065918 216.05696777 131.27200195 217.08203125 131.38671875 C217.96093018 131.48170654 218.8398291 131.57669434 219.74536133 131.67456055 C222 132 222 132 225 133 C223.05423773 141.06413676 220.32299652 148.49735623 216.9375 156.0625 C216.45144287 157.15304687 215.96538574 158.24359375 215.46459961 159.3671875 C205.01623155 182.46590149 191.26363042 202.90257305 174.15625 221.62109375 C172.20384564 223.77510509 170.31722641 225.97027726 168.4375 228.1875 C165.55898558 231.48854865 162.4727081 234.35226735 159.12890625 237.17578125 C157.68947784 238.40919972 156.28067879 239.67913567 154.90234375 240.98046875 C138.5106243 256.41623886 118.68289813 268.51576988 98.5 278.3125 C97.30709351 278.8998291 97.30709351 278.8998291 96.09008789 279.49902344 C95.34879639 279.84610352 94.60750488 280.19318359 93.84375 280.55078125 C93.19599609 280.85669189 92.54824219 281.16260254 91.88085938 281.4777832 C89.51031701 282.13595949 88.28145489 281.88756942 86 281 C83.98027948 279.0884266 82.14904747 277.19904218 80.3125 275.125 C79.51585937 274.2431604 79.51585937 274.2431604 78.703125 273.34350586 C74.77873838 268.9658053 71.02619981 264.4619552 67.34375 259.87890625 C64.6206017 256.53397243 61.81748949 253.2654456 59 250 C55.44519799 245.87556102 51.93206901 241.7279111 48.5 237.5 C43.6275637 231.50383064 38.59202636 225.65461274 33.54833984 219.80273438 C32.02159309 218.02514087 30.50358292 216.24047985 28.98828125 214.453125 C23.06978346 207.48251423 17.01218394 200.67764646 10.7734375 193.9921875 C8.44552694 191.49451708 6.18656753 188.94409295 3.9375 186.375 C-6.75236109 174.47349103 -18.08271959 162.49742554 -31 153 C-31.98613281 152.27039063 -32.97226563 151.54078125 -33.98828125 150.7890625 C-58.08370524 133.54862482 -85.49113454 123.81904213 -113.04312134 113.58998108 C-149.37954435 100.08947669 -149.37954435 100.08947669 -156 90 C-157.62147514 85.13557458 -157.65586011 80.88804498 -155.5625 76.1875 C-146.76661685 60.36099745 -129.07132558 48.15931412 -112.02124023 43.11914062 C-108.033285 42.00126128 -104.02136465 40.99003519 -100 40 C-99.08057617 39.77344727 -98.16115234 39.54689453 -97.21386719 39.31347656 C-88.6329902 37.21362449 -80.03595831 35.18172556 -71.43554688 33.16357422 C-33.27889086 26.88106704 -33.27889086 26.88106704 -3 6 C-1.83369085 4.01979165 -0.90116326 2.12038415 0 0 Z " fill="#B2D0C6" transform="translate(268,205)"/>
<path d="M0 0 C0.73025391 -0.02239746 1.46050781 -0.04479492 2.21289062 -0.06787109 C10.82504588 -0.0300286 16.6299007 5.20706654 23 10.4375 C23.6911792 11.00275391 24.3823584 11.56800781 25.09448242 12.15039062 C29.61776997 15.90301308 33.95511348 19.79572214 38.125 23.9375 C38.6099292 24.41703125 39.0948584 24.8965625 39.59448242 25.390625 C43.05287165 28.92027651 46.16236537 32.18548051 46.5 37.25 C46.438125 37.971875 46.37625 38.69375 46.3125 39.4375 C40.7744964 42.85714157 35.22914358 45.13177791 29.0625 47.1875 C28.0410791 47.52821533 27.0196582 47.86893066 25.96728516 48.2199707 C8.9711538 53.67488619 -8.64134968 57.07468475 -26.078125 60.8046875 C-48.93393654 65.74755332 -69.4876488 72.3195058 -87.6875 87.4375 C-88.61046875 88.19417969 -89.5334375 88.95085937 -90.484375 89.73046875 C-100.82148854 98.57966443 -109.52641449 110.60335919 -110.890625 124.5078125 C-111.14287643 135.56483346 -107.68593777 144.96226333 -100.1640625 153.08203125 C-85.24515975 166.8729194 -63.14614584 172.49075701 -44.4772644 179.24459839 C-6.24870443 193.07848351 21.47780175 209.59176818 50.1875 238.1875 C50.73379059 238.73093048 51.28008118 239.27436096 51.84292603 239.83425903 C57.88427319 245.85336992 63.81291014 251.91161015 69.3125 258.4375 C70.26249472 259.5434209 71.21300018 260.64890332 72.1640625 261.75390625 C73.0888592 262.83566612 74.01333039 263.91770434 74.9375 265 C79.22932031 270.01815987 83.54410338 275.01554107 87.875 280 C95.27984136 288.53109065 102.62264982 297.10976683 109.75 305.875 C114.21280887 311.35719148 118.80548931 316.72202483 123.41796875 322.078125 C123.88638184 322.62404297 124.35479492 323.16996094 124.83740234 323.73242188 C125.88610129 324.94462204 126.94481224 326.14819205 128.01025391 327.34570312 C128.55987793 327.96896484 129.10950195 328.59222656 129.67578125 329.234375 C130.18020752 329.79995117 130.68463379 330.36552734 131.2043457 330.94824219 C132.3125 332.4375 132.3125 332.4375 132.3125 334.4375 C120.7291629 337.6229177 109.19968065 340.62064434 97.3125 342.4375 C96.65008301 342.54191406 95.98766602 342.64632813 95.30517578 342.75390625 C73.6227817 346.01581367 49.94476173 345.97247391 28.3125 342.4375 C26.82729421 342.23735641 25.34158569 342.04091809 23.85546875 341.84765625 C-22.59754025 335.54394132 -68.23894969 313.46797537 -102.0234375 280.984375 C-104.1482255 278.95305274 -106.2913944 277.04840591 -108.5625 275.1875 C-111.64645108 272.58730595 -114.2248591 269.6771023 -116.828125 266.6015625 C-118.07545401 265.14983924 -119.3578413 263.72757162 -120.671875 262.3359375 C-131.67018488 250.65525073 -140.79711778 237.16428463 -148.67871094 223.22021484 C-149.65868841 221.48841536 -150.66106727 219.76935213 -151.6640625 218.05078125 C-158.28752074 206.42267618 -162.94955028 193.9217591 -167.6875 181.4375 C-167.96754883 180.715625 -168.24759766 179.99375 -168.53613281 179.25 C-173.22517526 167.0673728 -175.33107316 154.22968065 -177.6875 141.4375 C-177.87441406 140.435979 -178.06132812 139.43445801 -178.25390625 138.40258789 C-179.22376577 133.15928485 -180.15215114 127.97787221 -180.48046875 122.6484375 C-180.59366812 120.89277939 -180.72637437 119.13642127 -180.95166016 117.39160156 C-182.61765077 104.44398798 -182.61765077 104.44398798 -179.51855469 99.61669922 C-176.32770416 96.09134084 -172.54295097 93.39903947 -168.61572266 90.75048828 C-166.24838329 89.13849143 -164.0134236 87.39046263 -161.76635742 85.61669922 C-160.17070188 84.36178904 -158.55748461 83.1334545 -156.9375 81.91015625 C-154.22149108 79.85279578 -151.5393736 77.75638584 -148.86791992 75.64160156 C-146.48617143 73.75779525 -144.09392339 71.88751583 -141.70166016 70.01708984 C-140.31555256 68.93004547 -138.93258524 67.8389888 -137.55224609 66.74462891 C-98.73369976 36.03040843 -51.43708456 0.96630361 0 0 Z " fill="#E1DAC7" transform="translate(201.6875,161.5625)"/>
</svg>
